<svg width="26" height="26" viewBox="0 0 26 26" fill="none" xmlns="http://www.w3.org/2000/svg">
<mask id="mask0_44_373" style="mask-type:alpha" maskUnits="userSpaceOnUse" x="0" y="0" width="26" height="26">
<rect width="26" height="26" fill="#D9D9D9"/>
</mask>
<g mask="url(#mask0_44_373)">
<path d="M12.1873 14.0833V3.70836H13.8123V14.0833H12.1873ZM12.9998 22.2083C11.7331 22.2083 10.5415 21.9666 9.42484 21.4833C8.30817 21 7.33178 20.3402 6.49567 19.5041C5.65957 18.668 4.99985 17.6916 4.51652 16.575C4.03318 15.4583 3.7915 14.2667 3.7915 13C3.7915 11.6319 4.07901 10.3399 4.65403 9.12397C5.22902 7.908 6.0304 6.85835 7.05816 5.97502L8.1894 7.10626C7.31579 7.82153 6.63523 8.69375 6.14773 9.72292C5.66023 10.7521 5.41648 11.8444 5.41648 13C5.41648 15.0944 6.15675 16.8819 7.63731 18.3625C9.11787 19.8431 10.9054 20.5833 12.9998 20.5833C15.1123 20.5833 16.9043 19.8431 18.3759 18.3625C19.8474 16.8819 20.5831 15.0944 20.5831 13C20.5831 11.8444 20.3439 10.7521 19.8654 9.72292C19.387 8.69375 18.7019 7.82153 17.8102 7.10626L18.9415 5.97502C19.9762 6.85835 20.7793 7.908 21.3508 9.12397C21.9224 10.3399 22.2081 11.6319 22.2081 13C22.2081 14.2667 21.9664 15.4583 21.4831 16.575C20.9998 17.6916 20.3428 18.668 19.5123 19.5041C18.6817 20.3402 17.7081 21 16.5915 21.4833C15.4748 21.9666 14.2776 22.2083 12.9998 22.2083Z" fill="#88959C"/>
</g>
</svg>
